<svg version="1.2" xmlns="http://www.w3.org/2000/svg" viewBox="0 0 60 63" width="60" height="63">
	<title>Ecommerce</title>
	<style>
		.s0 { fill: none;stroke: #f93f44;stroke-linejoin: round;stroke-width: 4 } 
		.s1 { fill: #f93f44 } 
		.s2 { fill: none;stroke: #f93f44;stroke-width: 4 } 
	</style>
	<g id="Ecommerce">
		<path id="Shape 1" class="s0" d="m16 24h42l-9 20h-28l-9-36h-12"/>
		<path id="Ellipse 2" class="s1" d="m48.7 52.4c2.7 0 5 2.2 5 5 0 2.7-2.3 5-5 5-2.8 0-5-2.3-5-5 0-2.8 2.2-5 5-5z"/>
		<path id="Ellipse 2 copy" class="s1" d="m22.5 52.4c2.7 0 5 2.2 5 5 0 2.7-2.3 5-5 5-2.8 0-5-2.3-5-5 0-2.8 2.2-5 5-5z"/>
		<path id="Rectangle 19 copy 2" class="s1" d="m21 16h16v9h-16z"/>
		<path id="Rectangle 19 copy 3" class="s1" d="m39 13h16v12h-16z"/>
		<path id="Rectangle 19 copy 4" class="s2" d="m25.9 4.4l15.4-4.1 3.2 11.6-15.5 4.1z"/>
	</g>
</svg>